<!DOCTYPE svg PUBLIC "-//W3C//DTD SVG 1.1//EN" "http://www.w3.org/Graphics/SVG/1.1/DTD/svg11.dtd">

<!-- Uploaded to: SVG Repo, www.svgrepo.com, Transformed by: SVG Repo Mixer Tools -->
<svg fill="currentColor" width="64px" height="64px" viewBox="0 0 256 256" id="Flat" xmlns="http://www.w3.org/2000/svg">

<g id="SVGRepo_bgCarrier" stroke-width="0"/>

<g id="SVGRepo_tracerCarrier" stroke-linecap="round" stroke-linejoin="round"/>

<g id="SVGRepo_iconCarrier"> <path d="M216,44H40A12.01343,12.01343,0,0,0,28,56V200a12.01312,12.01312,0,0,0,12,12H216a12.01312,12.01312,0,0,0,12-12V56A12.01343,12.01343,0,0,0,216,44Zm4,156a4.00427,4.00427,0,0,1-4,4H40a4.00427,4.00427,0,0,1-4-4V56a4.00427,4.00427,0,0,1,4-4H216a4.00427,4.00427,0,0,1,4,4ZM172,88a44,44,0,0,1-88,0,4,4,0,0,1,8,0,36,36,0,0,0,72,0,4,4,0,0,1,8,0Z"/> </g>

</svg>